<mxfile host="65bd71144e">
    <diagram id="y7ooNCvx5bwQZMNQIE30" name="Page-1">
        <mxGraphModel dx="1071" dy="784" grid="1" gridSize="10" guides="1" tooltips="1" connect="1" arrows="1" fold="1" page="1" pageScale="1" pageWidth="850" pageHeight="1100" math="0" shadow="0">
            <root>
                <mxCell id="0"/>
                <mxCell id="1" parent="0"/>
                <mxCell id="2" value="" style="rounded=0;whiteSpace=wrap;html=1;fillColor=#f9f7ed;strokeColor=#36393d;fontSize=13;" vertex="1" parent="1">
                    <mxGeometry x="70" y="90" width="760" height="640" as="geometry"/>
                </mxCell>
                <mxCell id="4" style="edgeStyle=orthogonalEdgeStyle;html=1;entryX=0.5;entryY=0;entryDx=0;entryDy=0;strokeColor=#000000;strokeWidth=2;fontSize=13;" edge="1" parent="1" source="5" target="7">
                    <mxGeometry relative="1" as="geometry"/>
                </mxCell>
                <mxCell id="5" value="" style="ellipse;fillColor=strokeColor;strokeColor=#000000;fontSize=13;" vertex="1" parent="1">
                    <mxGeometry x="380" y="120" width="30" height="30" as="geometry"/>
                </mxCell>
                <mxCell id="6" style="edgeStyle=orthogonalEdgeStyle;html=1;entryX=0.5;entryY=0;entryDx=0;entryDy=0;strokeColor=#000000;strokeWidth=2;fontSize=13;" edge="1" parent="1" source="7" target="10">
                    <mxGeometry relative="1" as="geometry"/>
                </mxCell>
                <mxCell id="7" value="Register Hooks&lt;br style=&quot;font-size: 13px;&quot;&gt;Call Init of Hooks" style="html=1;align=center;verticalAlign=top;rounded=1;absoluteArcSize=1;arcSize=10;dashed=0;strokeColor=#000000;fillColor=#FFFFFF;fontColor=#000000;fontStyle=1;fontSize=13;" vertex="1" parent="1">
                    <mxGeometry x="322.5" y="200" width="145" height="40" as="geometry"/>
                </mxCell>
                <mxCell id="8" style="edgeStyle=orthogonalEdgeStyle;html=1;entryX=0;entryY=0.5;entryDx=0;entryDy=0;strokeColor=#000000;strokeWidth=2;fontSize=13;" edge="1" parent="1" source="10" target="16">
                    <mxGeometry relative="1" as="geometry"/>
                </mxCell>
                <mxCell id="9" style="edgeStyle=orthogonalEdgeStyle;html=1;entryX=0.5;entryY=0;entryDx=0;entryDy=0;strokeColor=#000000;strokeWidth=2;fontSize=13;" edge="1" parent="1" source="10" target="12">
                    <mxGeometry relative="1" as="geometry"/>
                </mxCell>
                <mxCell id="33" style="edgeStyle=orthogonalEdgeStyle;html=1;entryX=0.5;entryY=0;entryDx=0;entryDy=0;strokeColor=#000000;strokeWidth=2;fontSize=13;" edge="1" parent="1" source="10" target="31">
                    <mxGeometry relative="1" as="geometry"/>
                </mxCell>
                <mxCell id="10" value="Type" style="rhombus;strokeColor=#000000;fillColor=#FFFFFF;fontColor=#000000;fontStyle=1;fontSize=13;" vertex="1" parent="1">
                    <mxGeometry x="360" y="300" width="70" height="70" as="geometry"/>
                </mxCell>
                <mxCell id="11" style="edgeStyle=orthogonalEdgeStyle;html=1;entryX=0.5;entryY=0;entryDx=0;entryDy=0;strokeColor=#000000;strokeWidth=2;fontSize=13;" edge="1" parent="1" source="12" target="14">
                    <mxGeometry relative="1" as="geometry"/>
                </mxCell>
                <mxCell id="12" value="Create History in DB" style="html=1;align=center;verticalAlign=top;rounded=1;absoluteArcSize=1;arcSize=10;dashed=0;strokeColor=#000000;fillColor=#FFFFFF;fontColor=#000000;fontStyle=1;fontSize=13;" vertex="1" parent="1">
                    <mxGeometry x="330" y="410" width="130" height="30" as="geometry"/>
                </mxCell>
                <mxCell id="13" style="edgeStyle=orthogonalEdgeStyle;html=1;entryX=0.5;entryY=0;entryDx=0;entryDy=0;strokeColor=#000000;strokeWidth=2;fontSize=13;" edge="1" parent="1" source="14" target="36">
                    <mxGeometry relative="1" as="geometry">
                        <mxPoint x="395" y="580" as="targetPoint"/>
                    </mxGeometry>
                </mxCell>
                <mxCell id="14" value="Execute Hook" style="html=1;align=center;verticalAlign=top;rounded=1;absoluteArcSize=1;arcSize=10;dashed=0;strokeColor=#000000;fillColor=#FFFFFF;fontColor=#000000;fontStyle=1;fontSize=13;" vertex="1" parent="1">
                    <mxGeometry x="332.5" y="490" width="125" height="30" as="geometry"/>
                </mxCell>
                <mxCell id="15" style="edgeStyle=orthogonalEdgeStyle;html=1;entryX=0.5;entryY=0;entryDx=0;entryDy=0;strokeColor=#000000;strokeWidth=2;fontSize=13;" edge="1" parent="1" source="16" target="18">
                    <mxGeometry relative="1" as="geometry"/>
                </mxCell>
                <mxCell id="16" value="Create History In DB" style="html=1;align=center;verticalAlign=top;rounded=1;absoluteArcSize=1;arcSize=10;dashed=0;strokeColor=#000000;fillColor=#FFFFFF;fontColor=#000000;fontStyle=1;fontSize=13;" vertex="1" parent="1">
                    <mxGeometry x="560" y="320" width="130" height="30" as="geometry"/>
                </mxCell>
                <mxCell id="17" style="edgeStyle=orthogonalEdgeStyle;html=1;entryX=0.5;entryY=0;entryDx=0;entryDy=0;strokeColor=#000000;strokeWidth=2;fontSize=13;" edge="1" parent="1" source="18" target="35">
                    <mxGeometry relative="1" as="geometry">
                        <mxPoint x="645" y="485" as="targetPoint"/>
                    </mxGeometry>
                </mxCell>
                <mxCell id="18" value="Create Next occurence" style="html=1;align=center;verticalAlign=top;rounded=1;absoluteArcSize=1;arcSize=10;dashed=0;strokeColor=#000000;fillColor=#FFFFFF;fontColor=#000000;fontStyle=1;fontSize=13;" vertex="1" parent="1">
                    <mxGeometry x="555" y="410" width="140" height="30" as="geometry"/>
                </mxCell>
                <mxCell id="19" style="edgeStyle=orthogonalEdgeStyle;html=1;strokeColor=#000000;strokeWidth=2;exitX=0.5;exitY=1;exitDx=0;exitDy=0;entryX=1;entryY=0.5;entryDx=0;entryDy=0;fontSize=13;" edge="1" parent="1" source="35" target="36">
                    <mxGeometry relative="1" as="geometry">
                        <mxPoint x="645" y="525" as="sourcePoint"/>
                        <mxPoint x="640" y="590" as="targetPoint"/>
                    </mxGeometry>
                </mxCell>
                <mxCell id="26" value="Wait for New Executions" style="text;html=1;strokeColor=none;fillColor=none;align=center;verticalAlign=middle;whiteSpace=wrap;rounded=0;fontColor=#000000;fontSize=13;" vertex="1" parent="1">
                    <mxGeometry x="375" y="260" width="125" height="30" as="geometry"/>
                </mxCell>
                <mxCell id="28" value="TRIGGER" style="text;html=1;strokeColor=none;fillColor=none;align=center;verticalAlign=middle;whiteSpace=wrap;rounded=0;fontColor=#000000;fontSize=13;" vertex="1" parent="1">
                    <mxGeometry x="400" y="370" width="60" height="30" as="geometry"/>
                </mxCell>
                <mxCell id="29" value="SCHEDULED" style="text;html=1;strokeColor=none;fillColor=none;align=center;verticalAlign=middle;whiteSpace=wrap;rounded=0;fontColor=#000000;fontSize=13;" vertex="1" parent="1">
                    <mxGeometry x="455" y="310" width="75" height="30" as="geometry"/>
                </mxCell>
                <mxCell id="30" value="SUCCESS / FAILED" style="text;html=1;strokeColor=none;fillColor=none;align=center;verticalAlign=middle;whiteSpace=wrap;rounded=0;fontColor=#000000;fontSize=13;" vertex="1" parent="1">
                    <mxGeometry x="220" y="310" width="150" height="30" as="geometry"/>
                </mxCell>
                <mxCell id="34" style="edgeStyle=orthogonalEdgeStyle;html=1;entryX=0.5;entryY=0;entryDx=0;entryDy=0;strokeColor=#000000;strokeWidth=2;fontSize=13;" edge="1" parent="1" source="31" target="32">
                    <mxGeometry relative="1" as="geometry"/>
                </mxCell>
                <mxCell id="31" value="Update History" style="html=1;align=center;verticalAlign=top;rounded=1;absoluteArcSize=1;arcSize=10;dashed=0;strokeColor=#000000;fillColor=#FFFFFF;fontColor=#000000;fontStyle=1;fontSize=13;" vertex="1" parent="1">
                    <mxGeometry x="150" y="410" width="130" height="30" as="geometry"/>
                </mxCell>
                <mxCell id="39" style="edgeStyle=orthogonalEdgeStyle;html=1;entryX=0;entryY=0.5;entryDx=0;entryDy=0;strokeColor=#000000;strokeWidth=2;fontSize=13;" edge="1" parent="1" source="32" target="36">
                    <mxGeometry relative="1" as="geometry">
                        <Array as="points">
                            <mxPoint x="215" y="605"/>
                        </Array>
                    </mxGeometry>
                </mxCell>
                <mxCell id="32" value="Delete Occurence" style="html=1;align=center;verticalAlign=top;rounded=1;absoluteArcSize=1;arcSize=10;dashed=0;strokeColor=#000000;fillColor=#FFFFFF;fontColor=#000000;fontStyle=1;fontSize=13;" vertex="1" parent="1">
                    <mxGeometry x="150" y="490" width="130" height="30" as="geometry"/>
                </mxCell>
                <mxCell id="35" value="Execute Hook" style="html=1;align=center;verticalAlign=top;rounded=1;absoluteArcSize=1;arcSize=10;dashed=0;strokeColor=#000000;fillColor=#FFFFFF;fontColor=#000000;fontStyle=1;fontSize=13;" vertex="1" parent="1">
                    <mxGeometry x="545" y="490" width="160" height="30" as="geometry"/>
                </mxCell>
                <mxCell id="40" style="edgeStyle=orthogonalEdgeStyle;html=1;entryX=0.5;entryY=0;entryDx=0;entryDy=0;strokeColor=#000000;strokeWidth=2;fontSize=13;" edge="1" parent="1" source="36" target="10">
                    <mxGeometry relative="1" as="geometry">
                        <Array as="points">
                            <mxPoint x="395" y="650"/>
                            <mxPoint x="110" y="650"/>
                            <mxPoint x="110" y="260"/>
                            <mxPoint x="395" y="260"/>
                        </Array>
                    </mxGeometry>
                </mxCell>
                <mxCell id="36" value="Wait On Channel" style="html=1;align=center;verticalAlign=top;rounded=1;absoluteArcSize=1;arcSize=10;dashed=0;strokeColor=#000000;fillColor=#FFFFFF;fontColor=#000000;fontStyle=1;fontSize=13;" vertex="1" parent="1">
                    <mxGeometry x="332.5" y="590" width="125" height="30" as="geometry"/>
                </mxCell>
            </root>
        </mxGraphModel>
    </diagram>
</mxfile>